# xmcd
#
# Track frame offsets: 
#        150
#        8676
#        19452
#        29555
#        44158
#        56362
#        71564
#        83990
#        99266
#        112894
#        135972
#        150349
#        165402
#        178128
#        197005
#        208233
#        220736
#        227764
#        242291
#        256818
#        267520
#        276662
#        289764
#        296492
#
# Disc length: 4128 seconds
#
# Revision: 0
# Processed by: cddbd v1.5.2PL0 Copyright (c) Steve Scherf et al.
# Submitted via: ExactAudioCopy v1.0b3
#
DISCID=58101e18
DTITLE=Various Artist - Kiwi Country
DYEAR=2010
DGENRE=country
TTITLE0=New Zealand Army Band and The Chrictchurch Music Society Choir /
TTITLE0=God Defend New Zealand
TTITLE1=Maria Dallas - Tumbling Down
TTITLE2=Johnny Devlin - Lawdy Miss C;Awdy
TTITLE3=Danny Mcgirr - Under The Sun
TTITLE4=Te Hohanga - Poi E
TTITLE5=Suzanne Prentice - One Day At A Time
TTITLE6=Dusty Spittle - Cardigan Bay
TTITLE7=Vicki Galloway - Sailing Away
TTITLE8=Garner Wayne - Loove Ina Fowlhouse
TTITLE9=Rhonda - New Zealand Trilogy - Pokarekare Ana, Now Is The Hour
TTITLE9=, God Defend New Zealand
TTITLE10=Daphne Walker With Bill Wolfgramm's Hawaiians - Haere Mai
TTITLE11=Johnny Cooper and Margaret Francis - One By One
TTITLE12=Daphne Walker - Pania Of The Reef
TTITLE13=Danny Mcgirr - All Black Medley - Rugby, Racing and Beer, My Ol
TTITLE13=d Man's An All Black, On The Ball
TTITLE14=Pat Mcminn With Bill Langford and The Stardusters - Opo The Cra
TTITLE14=zy Dolphin
TTITLE15=Cole Wilson and The Tumbleweeds - Maple On The Hill
TTITLE16=Te Hohanga - Hoki Mai E Tama Ma
TTITLE17=Danny Mcgirr - The Jockey's Last Ride
TTITLE18=Brian Mccauley - Christchurch City
TTITLE19=Brendan Dugan - Mckenzie and His Dog
TTITLE20=Marla Dallas - Pinocchio
TTITLE21=Max Merritt and The Meteors - Get A Haircut
TTITLE22=Nicky Steel - Sticky Beak The Kiwi
TTITLE23=Te Ati Kimihia - Po Atarau (Now Is The Hour)
EXTD=
EXTT0=
EXTT1=
EXTT2=
EXTT3=
EXTT4=
EXTT5=
EXTT6=
EXTT7=
EXTT8=
EXTT9=
EXTT10=
EXTT11=
EXTT12=
EXTT13=
EXTT14=
EXTT15=
EXTT16=
EXTT17=
EXTT18=
EXTT19=
EXTT20=
EXTT21=
EXTT22=
EXTT23=
PLAYORDER=
